# xmcd
#
# Track frame offsets:
#	150
#	12320
#	22970
#	37612
#	50600
#	63432
#	78422
#	90912
#	103945
#	116112
#	128952
#	142455
#	155240
#	168972
#	182090
#	194987
#	208922
#	218670
#
# Disc length: 3099 seconds
#
# Revision: 5
# Processed by: cddbd v1.5.1PL0 Copyright (c) Steve Scherf et al.
# Submitted via: audiograbber 1.83.01
#
DISCID=0a0c1912
DTITLE=Various Artist - The Chess Box Vol 1
DYEAR=1988
DGENRE=Blues
TTITLE0=Little Walter - My Babe
TTITLE1=The Big Three - Violent Love
TTITLE2=Eddie Boyd - Third Degree
TTITLE3=Willie Mabon - Seventh Son
TTITLE4=Willie Dixon - Crazy For My Baby
TTITLE5=Willie Dixon - Pain In My Heart
TTITLE6=Willie Dixon - Hoochie Coochie Man
TTITLE7=Muddy Waters - Evil
TTITLE8=Howlin' Wolf - Mellow Down Easy
TTITLE9=Little Walter - When The Lights Go Out
TTITLE10=Muddy Waters - Young Fashioned Ways
TTITLE11=Bo Diddley - Pretty Thing
TTITLE12=Muddy Waters - I'm Ready
TTITLE13=Lowell Fulson - Do Me Right
TTITLE14=Muddy Waters - I Just Want To Make Love With You
TTITLE15=Lowell Fulson - Tollin' Bells
TTITLE16=Willie Dixon - 29 Ways
TTITLE17=Willie Dixon - Walkin' The Blues
EXTD=YEAR: 1988
EXTT0=
EXTT1=
EXTT2=
EXTT3=
EXTT4=
EXTT5=
EXTT6=
EXTT7=
EXTT8=
EXTT9=
EXTT10=
EXTT11=
EXTT12=
EXTT13=
EXTT14=
EXTT15=
EXTT16=
EXTT17=
PLAYORDER=
